<?xml version="1.0" standalone="no"?>
<!DOCTYPE svg PUBLIC "-//W3C//DTD SVG 20010904//EN"
 "http://www.w3.org/TR/2001/REC-SVG-20010904/DTD/svg10.dtd">
<svg version="1.0" xmlns="http://www.w3.org/2000/svg"
 width="254.000000pt" height="254.000000pt" viewBox="0 0 254.000000 254.000000"
 preserveAspectRatio="xMidYMid meet">
<metadata>
Created by potrace 1.14, written by Peter Selinger 2001-2017
</metadata>
<g transform="translate(0.000000,254.000000) scale(0.100000,-0.100000)"
fill="#000000" stroke="none">
<path d="M1149 2526 c-2 -2 -26 -6 -54 -9 -67 -8 -88 -13 -189 -42 -319 -92
-590 -315 -759 -622 -25 -46 -44 -83 -42 -83 2 0 -7 -24 -19 -52 -27 -61 -61
-193 -75 -288 -13 -91 -6 -320 13 -410 80 -377 313 -689 648 -869 66 -36 213
-96 258 -106 8 -2 35 -8 60 -14 25 -5 59 -13 75 -16 17 -4 95 -8 175 -10 152
-3 260 9 365 40 33 10 65 19 70 21 22 5 150 58 155 64 3 4 15 11 28 15 47 14
209 132 291 210 90 86 167 184 222 280 33 58 63 120 58 120 -1 0 7 18 19 40
24 48 68 206 79 285 14 100 8 338 -11 429 -56 268 -182 493 -381 679 -237 222
-533 337 -870 340 -62 1 -114 0 -116 -2z m-879 -1056 c11 -11 20 -24 20 -30 0
-5 13 -37 29 -72 16 -35 31 -69 33 -75 1 -7 23 31 47 85 24 53 49 100 55 104
18 13 86 6 86 -9 0 -7 -31 -75 -68 -151 -68 -137 -69 -137 -67 -217 0 -46 -4
-83 -10 -87 -17 -12 -72 -9 -81 5 -5 6 -9 48 -8 92 0 80 0 80 -69 213 -38 73
-66 140 -63 148 8 22 72 18 96 -6z m610 -5 c4 -11 5 -28 2 -37 -4 -16 -17 -18
-93 -18 l-89 0 0 -58 0 -58 75 0 c71 1 76 -1 82 -21 11 -45 -1 -53 -82 -53
l-75 0 0 -65 0 -65 90 0 c53 0 91 -4 91 -10 5 -38 3 -56 -6 -62 -18 -14 -253
-9 -262 5 -10 16 -13 427 -2 447 6 12 31 15 135 15 118 0 127 -1 134 -20z
m169 -9 c10 -17 31 -55 46 -83 15 -29 28 -53 30 -53 2 0 19 33 40 73 40 80 57
97 95 97 46 0 51 -17 19 -72 -16 -27 -29 -51 -29 -53 0 -2 -14 -27 -30 -55
l-30 -51 60 -114 c33 -62 60 -118 60 -124 0 -7 -20 -11 -50 -11 l-50 0 -46 91
c-25 50 -47 89 -50 87 -2 -3 -24 -43 -48 -89 l-44 -84 -46 -3 c-57 -4 -58 5
-14 85 18 32 44 80 59 108 l28 49 -51 96 c-28 52 -55 100 -60 107 -16 20 -1
30 46 30 41 1 48 -3 65 -31z m520 19 c31 -15 46 -41 31 -50 -6 -3 -26 2 -45
11 -43 20 -110 14 -130 -13 -18 -22 -19 -73 -2 -94 7 -9 44 -32 82 -52 39 -19
80 -46 93 -60 51 -54 32 -151 -36 -190 -68 -40 -212 -14 -212 38 0 30 -3 30
45 5 57 -29 129 -27 160 5 30 29 33 80 6 112 -10 11 -50 37 -89 57 -79 40
-100 63 -107 122 -6 47 18 91 62 110 39 17 108 17 142 -1z m207 -95 c30 -58
54 -111 54 -117 0 -32 19 -5 70 102 50 105 79 140 98 121 3 -4 -25 -70 -63
-147 -69 -139 -70 -140 -71 -227 -2 -109 0 -102 -24 -102 -19 0 -20 7 -20 92
l0 92 -70 138 c-39 77 -68 144 -64 149 15 25 41 -4 90 -101z m498 95 c24 -10
36 -22 36 -35 0 -24 -1 -24 -47 -5 -54 23 -100 19 -128 -10 -52 -51 -24 -100
87 -155 87 -42 111 -73 111 -134 -1 -53 -24 -89 -72 -112 -80 -39 -228 -2
-207 52 5 14 9 14 39 -3 76 -45 181 -21 193 44 9 48 -15 77 -94 117 -102 52
-136 98 -121 164 9 40 43 79 73 85 47 9 95 6 130 -8z"/>
</g>
</svg>
